<svg xmlns="http://www.w3.org/2000/svg" viewBox="0 0 24 24" width="24" height="24">
  <!-- Circuit board base -->
  <rect x="2" y="2" width="20" height="20" rx="2" ry="2" fill="#1e7f3c" />
  
  <!-- Circuit traces -->
  <path d="M5 5 L5 10 L10 10 L10 15 L15 15 L15 19" stroke="#f9b234" stroke-width="1.2" fill="none" />
  <path d="M19 5 L19 10 L14 10 L14 5" stroke="#f9b234" stroke-width="1.2" fill="none" />
  <path d="M5 19 L10 19 L10 17" stroke="#f9b234" stroke-width="1.2" fill="none" />
  
  <!-- IC chip -->
  <rect x="12" y="5" width="4" height="3" fill="#333" />
  
  <!-- Pads/vias -->
  <circle cx="5" cy="5" r="1" fill="#ddd" />
  <circle cx="19" cy="5" r="1" fill="#ddd" />
  <circle cx="5" cy="19" r="1" fill="#ddd" />
  <circle cx="19" cy="19" r="1" fill="#ddd" />
  <circle cx="10" cy="10" r="1" fill="#ddd" />
  <circle cx="10" cy="15" r="1" fill="#ddd" />
  <circle cx="15" cy="15" r="1" fill="#ddd" />
  
  <!-- SMD resistor -->
  <rect x="7" y="15" width="2" height="1" fill="#666" />
</svg>
